<svg id="Layer_1" data-name="Layer 1" xmlns="http://www.w3.org/2000/svg" viewBox="0 0 163 163"><defs><style>.cls-1,.cls-2{fill-rule:evenodd;}.cls-2{fill:none;stroke:#000;stroke-miterlimit:10;stroke-width:27.7px;}</style></defs><path class="cls-1" d="M63.34,56.89,74.42,68,47,95.36a1.62,1.62,0,0,0,0,2.29L64.35,115a1.62,1.62,0,0,0,2.29,0L94,87.58l11.07,11.08c.92.92,2.27.73,2.42-.34L111,74l3.46-24.35a2,2,0,0,0-2.07-2.07L88,51,63.68,54.47C62.61,54.62,62.42,56,63.34,56.89Z"/><path class="cls-2" d="M57,105c-20,19-42.5,42.5-16,42.88h81a25.91,25.91,0,0,0,25.9-25.9V41A25.91,25.91,0,0,0,122,15.12H41A25.91,25.91,0,0,0,15.12,41V71.47"/></svg>