<svg xmlns="http://www.w3.org/2000/svg" viewBox="0 0 85.26 90.96"><defs><style>.cls-1{fill:#2f40c4;}.cls-2{fill:#fff;}</style></defs><g id="Board_7" data-name="Board 7"><rect class="cls-1" x="-2.85" y="2.85" width="90.96" height="85.26" rx="10.18" transform="translate(88.11 2.85) rotate(90)"/><path class="cls-2" d="M17.85,19.17v7.26H29.3V19.17A3.34,3.34,0,0,1,30,16.84a2.47,2.47,0,0,1,1.9-.78,2.58,2.58,0,0,1,1.94.77,3.22,3.22,0,0,1,.74,2.34V39.12a3.27,3.27,0,0,1-.75,2.35,2.55,2.55,0,0,1-1.93.78A2.44,2.44,0,0,1,30,41.46a3.34,3.34,0,0,1-.72-2.34V30.61H17.85v8.51a3.27,3.27,0,0,1-.75,2.35,2.55,2.55,0,0,1-1.93.78,2.42,2.42,0,0,1-1.91-.79,3.34,3.34,0,0,1-.72-2.34V19.17a3.38,3.38,0,0,1,.71-2.33,2.46,2.46,0,0,1,1.92-.78,2.59,2.59,0,0,1,1.94.77A3.27,3.27,0,0,1,17.85,19.17Z"/><path class="cls-2" d="M40.53,39.12V19.17a3.29,3.29,0,0,1,.73-2.33,2.49,2.49,0,0,1,1.9-.78,2.57,2.57,0,0,1,1.93.77,3.22,3.22,0,0,1,.75,2.34V39.12a3.27,3.27,0,0,1-.75,2.35,2.54,2.54,0,0,1-1.93.78,2.45,2.45,0,0,1-1.89-.79A3.3,3.3,0,0,1,40.53,39.12Z"/><path class="cls-2" d="M58.68,19.14,68.89,34.06V19a3.25,3.25,0,0,1,.65-2.2,2.24,2.24,0,0,1,1.76-.74,2.32,2.32,0,0,1,1.81.74,3.2,3.2,0,0,1,.66,2.2V38.92c0,2.22-1,3.33-2.86,3.33a4,4,0,0,1-1.29-.2,3.18,3.18,0,0,1-1.07-.63,6.48,6.48,0,0,1-.93-1l-.86-1.18-10-14.75V39.31a3.09,3.09,0,0,1-.7,2.2,2.35,2.35,0,0,1-1.79.74,2.3,2.3,0,0,1-1.8-.75,3.17,3.17,0,0,1-.68-2.19V19.78a5.34,5.34,0,0,1,.29-2,2.74,2.74,0,0,1,1.12-1.27,3.15,3.15,0,0,1,1.7-.5,3,3,0,0,1,1.22.23,3.08,3.08,0,0,1,.9.6,6.21,6.21,0,0,1,.78,1C58.12,18.28,58.4,18.7,58.68,19.14Z"/><path class="cls-2" d="M14.92,48.67h6.92a19.43,19.43,0,0,1,4.63.48A8.63,8.63,0,0,1,30,51q4.1,3.39,4.1,10.3a19.08,19.08,0,0,1-.42,4.16,11.9,11.9,0,0,1-1.26,3.39,11,11,0,0,1-2.2,2.71A9.23,9.23,0,0,1,27.88,73a11,11,0,0,1-2.69.77A21.08,21.08,0,0,1,22,74H15a4.37,4.37,0,0,1-2.18-.43,2,2,0,0,1-.95-1.19,7.25,7.25,0,0,1-.23-2V51.81a3.22,3.22,0,0,1,.77-2.4A3.45,3.45,0,0,1,14.92,48.67Zm2.06,4V69.91h4c.88,0,1.57,0,2.07-.07a6.64,6.64,0,0,0,1.56-.34A4.36,4.36,0,0,0,26,68.72q2.67-2.18,2.67-7.5a10.71,10.71,0,0,0-1.17-5.61,5.22,5.22,0,0,0-2.89-2.38,14.7,14.7,0,0,0-4.15-.51Z"/><path class="cls-2" d="M42.5,51.34V69.57h7.92a2.9,2.9,0,0,1,2,.6,2.3,2.3,0,0,1,.68,1.69,2,2,0,0,1-.67,1.55,3,3,0,0,1-2,.58h-10A3.45,3.45,0,0,1,38,73.24a3.21,3.21,0,0,1-.76-2.4V51.34A3.33,3.33,0,0,1,37.91,49a2.48,2.48,0,0,1,1.91-.78,2.57,2.57,0,0,1,1.93.77A3.24,3.24,0,0,1,42.5,51.34Z"/><path class="cls-2" d="M72.39,52.62H60.87v6.22H71.48a2.49,2.49,0,0,1,1.75.53,1.8,1.8,0,0,1,.58,1.39,1.85,1.85,0,0,1-.57,1.4,2.44,2.44,0,0,1-1.76.55H60.87v7.2H72.79a2.64,2.64,0,0,1,1.82.56,2,2,0,0,1,.61,1.5,1.94,1.94,0,0,1-.61,1.46,2.64,2.64,0,0,1-1.82.56H58.89a3.26,3.26,0,0,1-2.4-.75,3.3,3.3,0,0,1-.73-2.4v-19A4.45,4.45,0,0,1,56.08,50a2.09,2.09,0,0,1,1-1,4.34,4.34,0,0,1,1.78-.31h13.5a2.64,2.64,0,0,1,1.82.54,1.82,1.82,0,0,1,.59,1.42,1.87,1.87,0,0,1-.59,1.45A2.64,2.64,0,0,1,72.39,52.62Z"/></g></svg>