<svg id="Layer_1" data-name="Layer 1" xmlns="http://www.w3.org/2000/svg" height="22px" width="22px" viewBox="0 0 204 234"><defs><style>.cls-1,.cls-2{fill:#2f40c4;}.cls-1{opacity:0.5;}</style></defs><path class="cls-1" d="M201.44,80.3q-4.2-8.13-16.56-13.17L64.14,17.75A36.61,36.61,0,0,0,12.5,51.14a35.74,35.74,0,0,0,.25,4.16V182.69q0,13.35,5.92,20.31A19.38,19.38,0,0,0,34.15,210a19.85,19.85,0,0,0,15.56-7q6.18-7,6.19-20.21V61.57l.24-.47L66.6,65.37l102,41.69q12.19,5,21,1.93A19.86,19.86,0,0,0,202,97.25,19.36,19.36,0,0,0,201.44,80.3Z"/><path class="cls-1" d="M23.83,50.91,140,220.28q7.68,10.93,16.52,13.22a19.34,19.34,0,0,0,16.66-3.2,19.83,19.83,0,0,0,8.69-14.7q1-9.33-6.55-20.11l-63.26-90.16-6.31-9L58.83,29.91"/><path class="cls-2" d="M188.61,65.38q-4.2-8.11-16.56-13.17L51.31,2.84A36.61,36.61,0,0,0-.33,36.22a35.91,35.91,0,0,0,.25,4.17V167.78q0,13.35,5.92,20.3a19.36,19.36,0,0,0,15.48,7,19.85,19.85,0,0,0,15.56-7q6.18-7,6.19-20.21V46.66l.24-.47,10.46,4.27L155.72,92.15q12.19,5,21.05,1.93a19.86,19.86,0,0,0,12.41-11.74A19.39,19.39,0,0,0,188.61,65.38Z"/><path class="cls-2" d="M11,36,127.16,205.37q7.68,10.92,16.52,13.22a19.37,19.37,0,0,0,16.66-3.2,19.85,19.85,0,0,0,8.69-14.7q1-9.33-6.55-20.11L99.22,90.42l-6.31-9L46,15"/></svg>