<svg id="Layer_1" data-name="Layer 1" xmlns="http://www.w3.org/2000/svg" viewBox="0 0 176.61 176.61"><defs><style>.cls-1,.cls-2{fill:none;stroke:#000;stroke-miterlimit:10;stroke-width:11px;}.cls-1{fill-rule:evenodd;}</style></defs><path class="cls-1" d="M96.11,106.84a11,11,0,0,1-15.6,0l-32.6-33-31.65-32A5.19,5.19,0,0,1,20,33H156.66a5.19,5.19,0,0,1,3.7,8.84l-31.66,32Z"/><path class="cls-2" d="M15.44,32.33H161.17a7.92,7.92,0,0,1,7.92,7.92V129a15.33,15.33,0,0,1-15.33,15.33H22.85A15.33,15.33,0,0,1,7.52,129V40.25A7.92,7.92,0,0,1,15.44,32.33Z"/></svg>