<svg xmlns="http://www.w3.org/2000/svg" viewBox="0 0 374.58 291.74"><defs><style>.cls-1{fill:none;stroke:#000;stroke-miterlimit:10;stroke-width:3px;}</style></defs><g id="Board_12" data-name="Board 12"><path class="cls-1" d="M34.32,19c42.77-22.78,72.31,12,79.94,19.21l1.23-2.66a11.68,11.68,0,0,1,6.59-6.08C138.5,23.58,160,22.73,160,22.73c2.11-2.43,1-9.57.23-13.06a2.57,2.57,0,0,1,1.51-2.87c9.55-4,20-2.77,24.67-1.86A2.94,2.94,0,0,1,188.78,8c-.78,13.24,2.14,13.49,2.14,13.49s38.25,0,41.81,5.6c6.13,9.63,2.39,13.06,2.39,13.06,8.28,14.59,7,30.27,7,30.27l4.63,3.33L357,41.91a2,2,0,0,1,2.08.59,65,65,0,0,1,12.23,19,2,2,0,0,1-.68,2.42A501.07,501.07,0,0,0,284.87,144c-19.67,23.17-29.8,39.41-29.8,39.41-1.78,39.51-19.09,71.41-27.81,85.12a29.24,29.24,0,0,1-12.74,11c-45.75,20.3-70.91-3.78-70.91-3.78a69.68,69.68,0,0,1-19.55-25.16c-15.52,2.4-87.46-7.81-75.79-78.05,0,0,6.88-13.55-37.66-80.67a45.3,45.3,0,0,1-7.1-19.87C1.8,57.37,4.94,34.64,34.32,19Z"/><path class="cls-1" d="M120.17,110.31s-7.89-23.2-9.29-41.53C110.25,60.65,58,4,35.82,35.94,20.54,58,25.15,69.68,53.73,118.23c0,0,15.49,18.93,14.46,49.92S79.55,225,115,225.3C115,225.3,87.47,167.8,120.17,110.31Z"/></g></svg>