<svg xmlns="http://www.w3.org/2000/svg" viewBox="0 0 374.58 291.74"><defs><style>.cls-1{fill:#f9c750;}</style></defs><g id="Board_12" data-name="Board 12"><path class="cls-1" d="M371.29,62.06a65.33,65.33,0,0,0-12.23-19,2.05,2.05,0,0,0-2.08-.59L246.72,74.28,242.09,71s1.31-15.68-7-30.27c0,0,3.74-3.43-2.39-13.06C229.17,22,190.92,22,190.92,22s-2.92-.25-2.14-13.49a2.92,2.92,0,0,0-2.37-3c-4.69-.91-15.12-2.18-24.68,1.85a2.57,2.57,0,0,0-1.51,2.87c.73,3.49,1.88,10.63-.23,13.06,0,0-21.49.85-37.91,6.74a11.68,11.68,0,0,0-6.59,6.08l-1.23,2.66c-7.63-7.19-37.17-42-79.94-19.21C4.94,35.18,1.8,57.9,3.51,72.59a45.3,45.3,0,0,0,7.1,19.87c44.54,67.12,37.66,80.67,37.66,80.67-11.67,70.24,60.27,80.45,75.79,78.06a69.69,69.69,0,0,0,19.55,25.15s25.76,24.66,72.55,3a24.51,24.51,0,0,0,10.17-8.86c8.35-12.82,26.9-45.61,28.74-86.57,0,0,10.13-16.24,29.8-39.41a501.07,501.07,0,0,1,85.74-80.06A2,2,0,0,0,371.29,62.06ZM115,225.83c-35.46-.35-47.86-26.17-46.82-57.15s-14.46-49.92-14.46-49.92C25.15,70.22,20.54,58.48,35.82,36.48,58,4.55,110.25,61.18,110.88,69.31c1.4,18.33,9.29,41.53,9.29,41.53C87.47,168.33,115,225.83,115,225.83Z"/></g></svg>