<svg xmlns="http://www.w3.org/2000/svg" viewBox="0 0 209.13 349.87"><defs><style>.cls-1{fill:none;stroke:#000;stroke-miterlimit:10;stroke-width:3px;}</style></defs><g id="Board_12" data-name="Board 12"><path class="cls-1" d="M21.09,313.16A38.56,38.56,0,0,0,42,335c22.83,9.67,68,21.89,109.75-7.55,0,0,27.74-12.84,14.9-153.06,0,0,61.63-28.25,25.68-90.4,0,0-4.62-11.81-48.79-54.44l.19-5.19a6.9,6.9,0,0,0-4.54-6.93c-12.65-4.58-49.31-15.78-101.9-14a9.84,9.84,0,0,0-9.46,10.66c2,23.62,6.36,83.1,2.71,94.06C26,122,2,162.94,5.92,225.73,8.22,262.69,10,284,21.09,313.16Z"/><path class="cls-1" d="M142.72,71.46c5.86,5.24,33.84,32.25,17.57,57.17a4.32,4.32,0,0,1-5.34,1.64c-5.9-2.62-16.72-13.49-13.38-58.33A.7.7,0,0,1,142.72,71.46Z"/></g></svg>