<svg xmlns="http://www.w3.org/2000/svg" viewBox="0 0 209.13 349.87"><defs><style>.cls-1{fill:#199989;}</style></defs><g id="Board_12" data-name="Board 12"><path class="cls-1" d="M193.26,84s-4.63-11.81-48.8-54.44l.2-5.19a6.91,6.91,0,0,0-4.54-6.93C127.47,12.83,90.8,1.63,38.21,3.39a9.84,9.84,0,0,0-9.45,10.66c2,23.62,6.36,83.1,2.71,94.06C26.84,122,2.91,162.94,6.81,225.73c2.3,37,4.09,58.3,15.17,87.43a38.53,38.53,0,0,0,21,21.82c22.83,9.67,68,21.89,109.75-7.55,0,0,27.74-12.84,14.9-153.06C167.58,174.37,229.21,146.12,193.26,84Zm-32.08,44.66a4.32,4.32,0,0,1-5.34,1.64c-5.91-2.62-16.72-13.49-13.39-58.33a.7.7,0,0,1,1.15-.48C149.46,76.7,177.45,103.71,161.18,128.63Z"/></g></svg>